<?xml version="1.0" standalone="no"?>
<!DOCTYPE svg PUBLIC "-//W3C//DTD SVG 20010904//EN"
 "http://www.w3.org/TR/2001/REC-SVG-20010904/DTD/svg10.dtd">
<svg version="1.0" xmlns="http://www.w3.org/2000/svg"
 width="200.000000pt" height="200.000000pt" viewBox="0 0 200.000000 200.000000"
 preserveAspectRatio="xMidYMid meet">

<g transform="translate(0.000000,200.000000) scale(0.100000,-0.100000)"
fill="#000000" stroke="none">
<path d="M880 1915 c0 -12 -15 -15 -75 -15 -60 0 -75 -3 -75 -15 0 -10 -11
-15 -35 -15 -24 0 -35 -5 -35 -15 0 -10 -10 -15 -30 -15 -20 0 -30 -5 -30 -15
0 -10 -10 -15 -30 -15 -23 0 -30 -4 -30 -20 0 -11 -7 -20 -15 -20 -8 0 -15 -7
-15 -15 0 -8 -9 -15 -20 -15 -11 0 -20 -7 -20 -15 0 -8 -7 -15 -15 -15 -8 0
-15 -7 -15 -15 0 -8 -7 -15 -15 -15 -8 0 -15 -7 -15 -15 0 -8 -7 -15 -15 -15
-8 0 -15 -7 -15 -15 0 -8 -7 -15 -15 -15 -10 0 -15 -10 -15 -30 0 -20 -5 -30
-15 -30 -10 0 -15 -11 -15 -35 0 -24 -5 -35 -15 -35 -11 0 -15 -12 -15 -44 0
-35 -4 -45 -20 -49 -19 -5 -20 -14 -20 -196 0 -184 1 -191 20 -191 17 0 20 -7
20 -50 0 -38 4 -50 15 -50 11 0 15 -12 15 -45 0 -33 4 -45 15 -45 10 0 15 -10
15 -30 0 -20 5 -30 15 -30 12 0 15 -13 15 -55 0 -42 -3 -55 -15 -55 -12 0 -15
-17 -15 -95 0 -78 -3 -95 -15 -95 -13 0 -15 -32 -15 -230 l0 -230 110 0 c91 0
110 3 110 15 0 8 5 15 10 15 6 0 10 -7 10 -15 0 -12 16 -15 80 -15 62 0 80 3
80 14 0 8 5 16 11 18 5 2 13 23 16 47 3 23 12 45 19 48 8 3 14 11 14 19 0 8 7
14 15 14 10 0 15 10 15 30 0 20 5 30 15 30 8 0 16 9 16 20 1 11 3 25 4 30 1 6
3 17 4 25 1 10 12 15 32 15 l30 0 -7 -72 c-4 -40 -11 -76 -16 -79 -5 -3 -11
-23 -15 -45 -3 -21 -12 -43 -20 -47 -7 -4 -13 -21 -13 -37 l0 -30 175 0 c149
0 175 2 175 15 0 8 -6 15 -14 15 -9 0 -16 18 -20 50 -4 27 -11 50 -16 50 -6 0
-10 14 -10 30 0 33 14 39 30 12 10 -16 10 -16 20 1 6 9 18 17 25 17 8 0 15 7
15 15 0 8 7 15 15 15 11 0 15 -12 15 -44 0 -56 9 -83 21 -64 5 8 9 -12 9 -49
0 -49 3 -63 15 -63 13 0 15 22 15 140 0 118 2 140 15 140 10 0 15 10 15 30 0
19 5 30 14 30 9 0 15 -19 19 -61 6 -65 10 -75 26 -64 7 4 11 49 11 116 l0 109
30 0 c27 0 30 -3 30 -30 0 -20 5 -30 15 -30 13 0 15 -26 14 -177 -1 -98 -3
-170 -6 -161 -2 10 -11 18 -20 18 -10 0 -13 -6 -9 -16 3 -9 6 -22 6 -30 0 -9
11 -14 30 -14 l30 0 0 200 c0 193 -1 200 -20 200 -17 0 -20 7 -20 45 0 33 -4
45 -15 45 -11 0 -15 11 -15 40 0 29 4 40 15 40 8 0 15 7 15 15 0 8 9 15 20 15
11 0 20 7 20 15 0 8 7 15 15 15 8 0 15 7 15 15 0 8 7 15 15 15 11 0 15 12 15
44 0 30 5 46 15 50 8 3 15 12 15 21 0 8 7 15 15 15 10 0 15 10 15 30 0 20 5
30 15 30 11 0 15 12 15 45 0 33 4 45 15 45 13 0 15 31 15 215 0 184 -2 215
-15 215 -11 0 -15 12 -15 45 0 33 -4 45 -15 45 -11 0 -15 12 -15 50 0 38 -4
50 -15 50 -10 0 -15 10 -15 30 0 20 -5 30 -15 30 -10 0 -15 10 -15 30 0 20 -5
30 -15 30 -8 0 -15 7 -15 15 0 8 -9 15 -20 15 -13 0 -18 5 -14 15 4 9 0 15 -9
15 -8 0 -18 -6 -20 -12 -3 -7 -6 -1 -6 15 -1 43 -21 31 -21 -13 0 -29 4 -40
15 -40 8 0 15 -7 15 -15 0 -8 -7 -15 -15 -15 -10 0 -15 -11 -15 -35 0 -24 -5
-35 -15 -35 -8 0 -15 -7 -15 -15 0 -8 -6 -15 -14 -15 -8 0 -16 -7 -20 -15 -7
-19 -36 -20 -36 -1 0 18 -31 25 -80 19 -40 -6 -41 -5 -38 25 2 25 8 33 30 37
26 6 28 11 28 51 0 32 -4 44 -15 44 -10 0 -15 10 -15 30 0 20 -5 30 -15 30 -8
0 -15 7 -15 15 0 10 -10 15 -29 15 -16 0 -36 3 -45 6 -12 4 -16 0 -16 -15 0
-12 6 -21 15 -21 13 0 15 -21 15 -125 0 -104 -2 -125 -15 -125 -8 0 -15 -7
-15 -15 0 -8 -7 -15 -15 -15 -8 0 -15 6 -15 14 0 7 -9 16 -20 19 -12 3 -20 14
-20 26 0 24 -10 27 -29 9 -10 -11 -15 -10 -25 5 -7 9 -18 17 -25 17 -6 0 -11
9 -11 20 0 11 7 20 15 20 8 0 15 -9 15 -20 0 -16 7 -20 30 -20 28 0 30 3 30
35 0 32 -2 35 -30 35 -20 0 -30 5 -30 15 0 8 -7 15 -15 15 -10 0 -15 -10 -15
-30 0 -18 -6 -33 -15 -36 -8 -4 -15 -12 -15 -20 0 -8 -7 -14 -15 -14 -8 0 -15
-4 -15 -10 0 -5 -16 -12 -35 -16 -19 -3 -35 -10 -35 -15 0 -10 -69 -24 -78
-15 -3 4 0 11 8 16 11 7 7 10 -17 10 -17 0 -35 5 -38 10 -4 6 -11 8 -16 5 -5
-4 -9 -1 -9 4 0 6 14 11 30 11 20 0 30 5 30 15 0 8 7 15 15 15 8 0 15 6 15 14
0 7 9 16 20 19 11 3 20 9 19 14 -4 24 2 53 11 48 6 -4 10 12 10 41 0 33 -5 51
-17 60 -12 8 -15 16 -8 23 14 13 65 2 65 -15 0 -8 7 -14 15 -14 8 0 15 -7 15
-15 0 -8 7 -15 15 -15 11 0 15 12 15 45 0 43 1 45 30 45 20 0 30 5 30 15 0 18
56 21 62 4 2 -6 37 -14 78 -17 41 -2 78 -10 82 -16 7 -11 11 -12 43 -15 8 0
15 -8 15 -16 0 -8 7 -15 15 -15 8 0 15 -7 15 -15 0 -8 6 -15 14 -15 17 0 26
-31 26 -97 0 -29 4 -53 8 -53 11 0 15 33 16 113 1 46 5 67 14 67 6 0 12 7 12
15 0 11 -12 15 -45 15 -33 0 -45 4 -45 15 0 10 -11 15 -35 15 -24 0 -35 5 -35
15 0 12 -15 15 -75 15 -60 0 -75 3 -75 15 0 13 -20 15 -120 15 -100 0 -120 -2
-120 -15z m-200 -139 c0 -3 -4 -8 -10 -11 -5 -3 -10 -1 -10 4 0 6 5 11 10 11
6 0 10 -2 10 -4z m880 -141 c0 -8 6 -15 14 -15 9 0 15 -17 18 -56 3 -31 10
-59 17 -63 7 -5 15 -27 18 -50 3 -25 9 -38 13 -31 4 7 11 -15 15 -49 4 -33 11
-61 16 -61 5 0 9 -27 9 -59 0 -43 -4 -60 -15 -65 -19 -7 -20 -26 -1 -26 8 0
17 -11 20 -25 8 -31 -4 -165 -15 -165 -4 0 -11 -16 -15 -35 -3 -19 -10 -35
-14 -35 -5 0 -11 -14 -15 -30 -4 -17 -13 -30 -21 -30 -8 0 -14 -7 -14 -15 0
-10 -10 -15 -30 -15 -16 0 -30 5 -30 11 0 6 -7 9 -15 5 -8 -3 -15 -2 -15 3 0
5 9 11 21 14 12 3 18 10 14 16 -3 6 0 11 7 11 15 0 48 35 48 50 0 5 7 13 16
18 11 6 17 30 21 80 5 69 5 72 -16 72 -12 0 -21 6 -21 15 0 16 -26 21 -32 6
-1 -5 -15 -13 -30 -16 -26 -7 -28 -5 -28 23 0 26 5 31 30 37 17 4 30 12 30 20
0 7 8 15 18 17 14 4 17 13 14 47 -3 26 -9 41 -18 41 -8 0 -14 7 -14 15 0 10
-10 15 -30 15 -23 0 -30 4 -30 20 0 11 -7 20 -15 20 -8 0 -15 7 -15 15 0 8 -7
15 -15 15 -8 0 -15 7 -15 15 0 8 -7 15 -15 15 -10 0 -15 10 -15 30 0 38 9 38
40 0 14 -16 31 -29 38 -30 6 0 12 -9 12 -20 0 -27 49 -27 73 0 22 26 23 80 2
80 -10 0 -15 10 -15 29 0 16 -6 31 -15 35 -11 4 -15 21 -15 61 0 42 3 55 15
55 8 0 15 -7 15 -15z m-970 -90 c0 -8 6 -15 14 -15 16 0 26 -30 26 -80 0 -58
-10 -80 -35 -80 -21 0 -23 6 -30 65 -5 46 -11 65 -21 65 -9 0 -14 11 -14 30 0
27 3 30 30 30 20 0 30 -5 30 -15z m440 -30 c0 -10 10 -15 30 -15 20 0 30 -5
30 -15 0 -8 9 -15 20 -15 11 0 20 -7 20 -15 0 -10 10 -15 30 -15 20 0 30 5 30
15 0 8 7 15 15 15 8 0 15 7 15 15 0 11 12 15 45 15 43 0 45 -1 45 -30 0 -19 5
-30 14 -30 8 0 16 -7 20 -15 4 -12 -3 -15 -30 -15 -28 0 -35 -3 -32 -17 3 -13
14 -18 43 -19 91 -3 85 0 85 -49 l0 -45 -65 0 c-51 0 -65 -3 -65 -15 0 -10
-10 -15 -30 -15 -27 0 -30 -3 -30 -30 0 -20 5 -30 15 -30 8 0 15 -6 15 -14 0
-16 30 -26 83 -26 31 0 40 4 44 20 9 36 28 15 31 -33 3 -42 1 -47 -17 -47 -12
0 -21 -7 -21 -15 0 -10 -10 -15 -30 -15 -20 0 -30 5 -30 15 0 8 -7 15 -15 15
-8 0 -15 -7 -15 -15 0 -8 -7 -15 -15 -15 -8 0 -15 -7 -15 -15 0 -8 7 -15 15
-15 8 0 15 7 15 15 0 8 7 15 15 15 8 0 15 -7 15 -15 0 -8 7 -15 15 -15 8 0 15
-7 15 -15 0 -8 -7 -15 -15 -15 -8 0 -15 7 -15 15 0 8 -7 15 -15 15 -8 0 -15
-7 -15 -15 0 -8 -7 -15 -15 -15 -8 0 -15 7 -15 15 0 8 -7 15 -15 15 -8 0 -15
-7 -15 -15 0 -8 -7 -15 -15 -15 -8 0 -15 7 -15 15 0 8 7 15 15 15 8 0 15 7 15
15 0 8 -7 15 -15 15 -8 0 -15 -7 -15 -15 0 -8 -7 -15 -15 -15 -8 0 -15 -7 -15
-15 0 -8 -7 -15 -15 -15 -8 0 -15 6 -15 14 0 8 7 16 15 20 27 10 15 26 -20 26
-24 0 -35 5 -35 15 0 8 -7 15 -15 15 -8 0 -15 -7 -15 -15 0 -10 -10 -15 -30
-15 -29 0 -30 -2 -30 -45 0 -33 -4 -45 -15 -45 -12 0 -15 13 -15 60 l0 60 -30
0 c-19 0 -30 5 -30 14 0 7 -9 16 -20 19 -15 4 -20 14 -20 36 0 24 4 31 20 31
17 0 20 7 20 45 0 33 4 45 15 45 8 0 15 7 15 15 0 10 -10 15 -30 15 -20 0 -30
-5 -30 -15 0 -8 -9 -15 -20 -15 -11 0 -20 -7 -20 -15 0 -10 -10 -15 -30 -15
-27 0 -30 -3 -30 -30 0 -20 5 -30 15 -30 10 0 15 -10 15 -30 0 -18 6 -33 15
-36 8 -4 15 -12 15 -20 0 -8 7 -14 15 -14 10 0 15 -10 15 -30 0 -27 -3 -30
-30 -30 -20 0 -30 5 -30 15 0 8 -7 15 -15 15 -8 0 -15 7 -15 15 0 8 -7 15 -15
15 -8 0 -15 9 -15 20 0 11 -7 20 -15 20 -8 0 -15 7 -15 15 0 8 -7 15 -15 15
-12 0 -15 13 -15 60 0 47 3 60 15 60 11 0 15 12 15 45 0 44 1 45 31 45 l32 0
-5 48 c-3 26 -3 41 -1 35 11 -31 93 3 93 37 0 6 9 10 20 10 11 0 20 7 20 15 0
12 13 15 60 15 47 0 60 -3 60 -15z m-197 -12 c-7 -2 -21 -2 -30 0 -10 3 -4 5
12 5 17 0 24 -2 18 -5z m-423 -25 c0 -39 -12 -68 -26 -68 -11 0 -14 -23 -14
-110 0 -60 -4 -110 -9 -110 -13 0 -17 26 -16 105 2 154 4 175 20 175 8 0 15 7
15 15 0 8 7 15 15 15 9 0 15 -9 15 -22z m310 7 c0 -8 7 -15 15 -15 8 0 15 7
15 15 0 8 7 15 15 15 8 0 15 -7 15 -15 0 -8 -6 -15 -14 -15 -7 0 -16 -13 -19
-30 -5 -24 -12 -30 -31 -30 -23 0 -26 -5 -32 -50 -4 -32 -11 -50 -20 -50 -9 0
-14 -11 -14 -31 0 -20 -4 -29 -12 -26 -7 2 -13 9 -12 15 1 7 2 32 3 57 1 33 5
45 16 45 10 0 15 11 15 35 0 32 2 35 30 35 20 0 30 5 30 15 0 8 -7 15 -15 15
-8 0 -15 7 -15 15 0 8 7 15 15 15 8 0 15 -7 15 -15z m-100 -390 c0 -129 3
-157 15 -161 9 -4 15 -19 15 -35 0 -18 5 -29 14 -29 8 0 16 -7 20 -15 3 -8 12
-15 21 -15 8 0 15 -7 15 -15 0 -8 6 -15 14 -15 9 0 16 -12 18 -32 2 -18 8 -32
14 -31 7 1 15 -12 19 -30 6 -28 8 -30 15 -12 8 19 9 19 9 -2 1 -14 7 -23 16
-23 8 0 15 -7 15 -15 0 -8 6 -15 14 -15 8 0 17 -11 20 -25 4 -14 11 -25 16
-25 6 0 10 -22 10 -50 0 -38 -4 -50 -15 -50 -8 0 -15 -7 -15 -15 0 -8 -4 -15
-9 -15 -5 0 -12 -14 -16 -30 -4 -17 -10 -30 -13 -30 -4 0 -17 -3 -29 -6 -22
-6 -23 -4 -23 60 0 52 3 66 15 66 10 0 15 10 15 30 0 20 -5 30 -15 30 -11 0
-15 12 -15 51 0 33 -4 48 -11 44 -6 -4 -13 2 -16 14 -3 12 -12 21 -19 21 -8 0
-14 7 -14 15 0 8 -7 15 -15 15 -8 0 -15 7 -15 15 0 8 -7 15 -15 15 -8 0 -15 7
-15 15 0 8 -7 15 -15 15 -10 0 -15 10 -15 30 0 16 -7 33 -15 38 -10 5 -17 31
-22 78 -3 38 -11 72 -16 76 -6 3 -12 31 -15 62 -4 45 -1 57 12 62 19 7 21 30
4 38 -9 3 -8 8 5 16 9 6 17 18 17 25 0 8 5 15 10 15 6 0 10 -58 10 -155z m720
110 c0 -8 -7 -15 -15 -15 -8 0 -15 7 -15 15 0 8 7 15 15 15 8 0 15 -7 15 -15z
m-938 -232 c7 -118 -13 -182 -26 -85 -7 53 2 142 14 142 5 0 10 -26 12 -57z
m528 16 c0 -19 5 -29 15 -29 8 0 15 -9 15 -21 0 -18 -2 -18 -25 7 -24 26 -37
92 -15 79 6 -3 10 -19 10 -36z m160 26 c0 -8 -7 -15 -15 -15 -8 0 -15 7 -15
15 0 8 7 15 15 15 8 0 15 -7 15 -15z m-180 -60 c0 -8 7 -15 15 -15 8 0 15 -7
15 -15 0 -8 7 -15 15 -15 8 0 15 -9 15 -20 0 -11 -5 -20 -12 -20 -6 0 -9 -2
-7 -5 3 -2 15 -2 27 2 17 4 22 13 22 39 0 24 5 34 15 34 8 0 15 -7 15 -15 0
-10 10 -15 30 -15 20 0 30 5 30 15 0 8 -7 15 -15 15 -8 0 -15 7 -15 15 0 8 7
15 15 15 8 0 15 -7 15 -15 0 -8 6 -15 14 -15 8 0 16 7 20 15 3 8 12 15 21 15
8 0 15 -7 15 -15 0 -8 7 -15 15 -15 8 0 15 -7 15 -15 0 -8 7 -15 15 -15 8 0
15 7 15 15 0 8 -7 15 -15 15 -8 0 -15 7 -15 15 0 8 7 15 15 15 8 0 15 -7 15
-15 0 -8 7 -15 15 -15 8 0 15 7 15 15 0 8 7 15 15 15 8 0 15 -7 15 -15 0 -8 7
-15 15 -15 8 0 15 7 15 15 0 8 7 15 15 15 8 0 15 -7 15 -15 0 -8 7 -15 15 -15
8 0 15 -7 15 -15 0 -8 9 -15 20 -15 16 0 20 -7 20 -30 0 -34 10 -32 -150 -32
-219 0 -230 1 -230 17 0 8 -5 15 -10 15 -6 0 -13 -7 -16 -15 -4 -9 -19 -15
-35 -15 -19 0 -29 5 -29 15 0 8 -7 15 -15 15 -8 0 -15 7 -15 15 0 8 -7 15 -15
15 -10 0 -15 10 -15 30 0 20 5 30 15 30 8 0 15 -7 15 -15z m-480 -130 c0 -8
-4 -15 -10 -15 -5 0 -10 7 -10 15 0 8 5 15 10 15 6 0 10 -7 10 -15z m595 5
c-3 -5 -10 -10 -16 -10 -5 0 -9 5 -9 10 0 6 7 10 16 10 8 0 12 -4 9 -10z
m-555 -35 c0 -8 -7 -15 -15 -15 -8 0 -15 7 -15 15 0 8 7 15 15 15 8 0 15 -7
15 -15z m970 -30 c0 -8 7 -15 15 -15 8 0 15 7 15 15 0 11 12 15 45 15 43 0 45
-1 45 -30 0 -20 -5 -30 -15 -30 -10 0 -15 -10 -15 -30 0 -20 -5 -30 -15 -30
-8 0 -15 -7 -15 -15 0 -8 -7 -15 -16 -15 -9 0 -18 -10 -22 -22 -5 -21 -6 -21
-13 -2 -5 13 -8 4 -8 -28 -1 -36 -5 -48 -16 -48 -8 0 -15 -7 -15 -15 0 -8 -9
-15 -20 -15 -11 0 -20 -7 -20 -15 0 -10 -10 -15 -30 -15 -20 0 -30 -5 -30 -15
0 -8 -7 -15 -15 -15 -8 0 -15 -7 -15 -15 0 -8 -7 -15 -15 -15 -8 0 -15 -6 -15
-14 0 -7 -9 -16 -21 -19 -12 -3 -18 -10 -14 -16 3 -6 -1 -11 -9 -11 -11 0 -16
9 -16 30 0 20 -5 30 -15 30 -8 0 -15 7 -15 15 0 10 10 15 30 15 20 0 30 5 30
15 0 8 7 15 15 15 8 0 15 7 15 15 0 10 10 15 30 15 20 0 30 5 30 15 0 8 7 15
15 15 8 0 15 7 15 15 0 8 6 15 14 15 15 0 26 42 26 97 0 30 -3 34 -22 33 -39
-3 -48 -1 -48 15 0 8 -7 15 -15 15 -8 0 -15 -7 -15 -15 0 -8 -7 -15 -15 -15
-9 0 -15 9 -15 24 0 26 21 36 83 36 26 0 37 4 37 15 0 10 11 15 35 15 24 0 35
-5 35 -15z m-820 -155 c0 -5 -4 -10 -10 -10 -5 0 -10 5 -10 10 0 6 5 10 10 10
6 0 10 -4 10 -10z m30 -30 c0 -5 -4 -10 -10 -10 -5 0 -10 5 -10 10 0 6 5 10
10 10 6 0 10 -4 10 -10z m38 -32 c-6 -18 -28 -21 -28 -4 0 9 7 16 16 16 9 0
14 -5 12 -12z m62 -63 c0 -8 -7 -15 -15 -15 -8 0 -15 7 -15 15 0 8 7 15 15 15
8 0 15 -7 15 -15z m-160 -175 c0 -20 -5 -30 -15 -30 -12 0 -15 -15 -15 -76 0
-67 -2 -74 -15 -60 -8 8 -15 28 -15 45 0 41 -18 40 -23 -1 -3 -25 -4 -22 -5
15 -2 36 2 47 13 47 11 0 15 12 15 45 0 43 1 45 30 45 27 0 30 -3 30 -30z"/>
<path d="M940 1390 c0 -11 -7 -20 -15 -20 -8 0 -15 -7 -15 -15 0 -8 5 -15 10
-15 6 0 13 7 16 15 5 11 23 15 79 15 56 0 74 -4 79 -15 3 -8 10 -15 16 -15 5
0 10 7 10 15 0 8 -7 15 -15 15 -8 0 -15 9 -15 20 0 18 -7 20 -75 20 -68 0 -75
-2 -75 -20z"/>
<path d="M1250 1355 c0 -8 7 -15 15 -15 8 0 15 7 15 15 0 8 -7 15 -15 15 -8 0
-15 -7 -15 -15z"/>
<path d="M970 1235 c0 -33 4 -45 15 -45 8 0 15 -9 15 -20 0 -16 7 -20 34 -20
54 0 96 11 96 26 0 8 5 14 10 14 6 0 10 7 10 15 0 8 -7 15 -15 15 -8 0 -15 7
-15 15 0 8 -7 15 -15 15 -8 0 -15 7 -15 15 0 12 -13 15 -60 15 l-60 0 0 -45z
m120 -30 c0 -8 -7 -15 -15 -15 -8 0 -15 7 -15 15 0 8 7 15 15 15 8 0 15 -7 15
-15z"/>
<path d="M1190 1175 c0 -8 -7 -15 -15 -15 -8 0 -15 -7 -15 -15 0 -11 12 -15
45 -15 33 0 45 4 45 15 0 8 -7 15 -15 15 -8 0 -15 7 -15 15 0 8 -7 15 -15 15
-8 0 -15 -7 -15 -15z"/>
<path d="M1130 926 c0 -9 7 -16 16 -16 17 0 14 22 -4 28 -7 2 -12 -3 -12 -12z"/>
<path d="M1250 925 c0 -8 7 -15 15 -15 8 0 15 7 15 15 0 8 -7 15 -15 15 -8 0
-15 -7 -15 -15z"/>
<path d="M1310 925 c0 -8 7 -15 15 -15 8 0 15 7 15 15 0 8 -7 15 -15 15 -8 0
-15 -7 -15 -15z"/>
<path d="M1000 1780 c0 -27 3 -30 30 -30 20 0 30 -5 30 -15 0 -8 6 -15 14 -15
8 0 17 -13 21 -30 4 -16 11 -30 16 -30 5 0 9 14 9 30 0 17 -4 30 -9 30 -5 0
-12 14 -16 30 -4 17 -13 30 -21 30 -8 0 -14 7 -14 15 0 10 -10 15 -30 15 -27
0 -30 -3 -30 -30z"/>
<path d="M1430 1795 c0 -8 7 -15 15 -15 8 0 15 7 15 15 0 8 -7 15 -15 15 -8 0
-15 -7 -15 -15z"/>
</g>
</svg>
