<?xml version="1.0" standalone="no"?>
<!DOCTYPE svg PUBLIC "-//W3C//DTD SVG 20010904//EN"
 "http://www.w3.org/TR/2001/REC-SVG-20010904/DTD/svg10.dtd">
<svg version="1.0" xmlns="http://www.w3.org/2000/svg"
 width="128.000000pt" height="125.000000pt" viewBox="0 0 128.000000 125.000000"
 preserveAspectRatio="xMidYMid meet">

<g transform="translate(0.000000,125.000000) scale(0.100000,-0.100000)"
fill="#1d683c" stroke="none">
<path d="M470 1204 c-105 -28 -180 -72 -265 -158 -118 -119 -175 -250 -175
-406 0 -156 57 -288 175 -405 123 -124 246 -175 415 -175 158 0 300 59 409
169 113 113 173 256 173 411 0 262 -184 498 -438 564 -76 20 -220 20 -294 0z
m321 -284 c23 -13 49 -61 49 -93 0 -13 -13 -44 -30 -68 -27 -40 -30 -52 -30
-126 0 -74 3 -86 31 -132 39 -62 35 -106 -13 -146 -26 -22 -39 -26 -70 -22
-49 7 -66 21 -88 73 -15 34 -31 49 -90 83 -63 36 -79 41 -134 41 -38 0 -70 6
-82 15 -51 35 -55 127 -7 165 19 15 40 20 86 20 53 0 69 5 138 46 61 36 79 51
84 74 10 46 51 80 97 80 22 0 48 -5 59 -10z"/>
<path d="M581 695 c-87 -52 -92 -57 -83 -71 10 -15 163 -104 179 -104 10 0 13
28 13 110 0 131 1 130 -109 65z"/>
</g>
</svg>
