<svg xmlns="http://www.w3.org/2000/svg"
     width="728.55"
     height="183"
     viewBox="0 0 728.55 183">
	<g id="Group_1"
	   data-name="Group 1"
	   transform="translate(-413.45 -100)">
		<text id="GRACZ"
		      transform="translate(603 245)"
		      fill="#ffffff"
		      font-size="150"
		      font-family="Montserrat-Bold, Montserrat"
		      font-weight="700">
			<tspan x="0"
			       y="0">GRACZ</tspan>
		</text>
		<path id="mgr"
		      d="M39.87,35.37a19.064,19.064,0,0,1,10.618,3.052,17.567,17.567,0,0,1,5.389,5.731A18.3,18.3,0,0,1,71.91,35.37a19.752,19.752,0,0,1,7.577,1.444A17.228,17.228,0,0,1,85.5,40.949a18.56,18.56,0,0,1,3.9,6.418A23.94,23.94,0,0,1,90.78,55.59V88.5H67.53V61.44a6.11,6.11,0,0,0-1.192-3.965A3.587,3.587,0,0,0,63.45,56.19a4.035,4.035,0,0,0-3.34,1.594,7.8,7.8,0,0,0-1.37,4.826V88.5H35.49V61.44A6.11,6.11,0,0,0,34.3,57.475,3.587,3.587,0,0,0,31.41,56.19a4.035,4.035,0,0,0-3.34,1.594A7.8,7.8,0,0,0,26.7,62.61V88.5H3.45V36.27H26.7v4.282A18.322,18.322,0,0,1,39.87,35.37ZM55.68,51.161l-1.274-3.208a15,15,0,0,0-5.579-7.034,16.08,16.08,0,0,0-8.957-2.55,16.009,16.009,0,0,0-7.764,1.875,16.213,16.213,0,0,0-5.662,5.292L23.7,49.617V39.27H6.45V85.5H23.7V62.61c0-5.634,3.1-9.42,7.71-9.42A6.632,6.632,0,0,1,36.6,55.55a9.032,9.032,0,0,1,1.891,5.89V85.5H55.74V62.61c0-5.634,3.1-9.42,7.71-9.42a6.632,6.632,0,0,1,5.189,2.36,9.032,9.032,0,0,1,1.891,5.89V85.5H87.78V55.59c0-5.131-1.543-9.482-4.463-12.584a14.247,14.247,0,0,0-4.974-3.419A16.77,16.77,0,0,0,71.91,38.37,15.63,15.63,0,0,0,63.1,40.887a17.177,17.177,0,0,0-5.942,7.154ZM191.97,35.37h1.5V56.879l-1.72-.255a25.048,25.048,0,0,0-3.657-.286,11.891,11.891,0,0,0-7.238,1.962,6.212,6.212,0,0,0-2.415,5.21V88.5H155.19V36.27h23.25V40.8a18.813,18.813,0,0,1,4.182-3.115A19.254,19.254,0,0,1,191.97,35.37Zm-1.5,18.08V38.43a15.944,15.944,0,0,0-6.409,1.882,16.681,16.681,0,0,0-5.873,5.49l-2.748,4.122V39.27H158.19V85.5h17.25V63.51a9.188,9.188,0,0,1,3.589-7.591,14.793,14.793,0,0,1,9.063-2.581C188.859,53.338,189.654,53.375,190.47,53.45Zm-76.35-17.9a18.589,18.589,0,0,1,11.19,3.43V36.27h23.16V82.95a22.827,22.827,0,0,1-2.159,9.919,21.65,21.65,0,0,1-6.064,7.586,27.573,27.573,0,0,1-9.2,4.761,39.424,39.424,0,0,1-11.618,1.644,49.105,49.105,0,0,1-13.653-1.973,38.634,38.634,0,0,1-10.4-4.669L94.3,99.5l7.659-16.289,1.433.9A28.992,28.992,0,0,0,117.63,88.2a10.611,10.611,0,0,0,5.961-1.419,3.811,3.811,0,0,0,1.719-3.291v-1.3a16.651,16.651,0,0,1-3.263,1.858,19.066,19.066,0,0,1-7.567,1.483,21.052,21.052,0,0,1-8.676-1.806,20.078,20.078,0,0,1-6.932-5.153,23.624,23.624,0,0,1-4.531-7.992A31.9,31.9,0,0,1,92.73,60.27,31.475,31.475,0,0,1,94.284,50.2a22.992,22.992,0,0,1,4.407-7.826,19.532,19.532,0,0,1,6.813-5.055A21.03,21.03,0,0,1,114.12,35.55Zm14.19,10.736-2.618-2.926a13.88,13.88,0,0,0-4.968-3.556,16.859,16.859,0,0,0-6.6-1.254,18.051,18.051,0,0,0-7.4,1.511,16.553,16.553,0,0,0-5.773,4.286,20.011,20.011,0,0,0-3.825,6.813,28.49,28.49,0,0,0-1.4,9.11,28.913,28.913,0,0,0,1.451,9.341A20.642,20.642,0,0,0,101.13,76.6a17.1,17.1,0,0,0,5.9,4.39,18.073,18.073,0,0,0,7.448,1.544,14.53,14.53,0,0,0,11.211-4.718l2.619-2.937V83.49a6.746,6.746,0,0,1-3.006,5.754A13.3,13.3,0,0,1,117.63,91.2a32.323,32.323,0,0,1-14.367-3.706L98.132,98.408a37.282,37.282,0,0,0,8.491,3.6,46.064,46.064,0,0,0,12.807,1.852,36.436,36.436,0,0,0,10.733-1.511,24.593,24.593,0,0,0,8.206-4.234,18.781,18.781,0,0,0,7.1-15.165V39.27H128.31ZM119.97,50.4a7.6,7.6,0,0,1,6.162,3.016,12.019,12.019,0,0,1,2.178,7.394,11.833,11.833,0,0,1-2.181,7.319,7.821,7.821,0,0,1-12.318,0,11.833,11.833,0,0,1-2.181-7.319,12.019,12.019,0,0,1,2.178-7.394A7.6,7.6,0,0,1,119.97,50.4Zm0,17.73a4.566,4.566,0,0,0,3.786-1.837,8.907,8.907,0,0,0,1.554-5.483,9.1,9.1,0,0,0-1.557-5.566,4.8,4.8,0,0,0-7.566,0,9.1,9.1,0,0,0-1.557,5.566,8.907,8.907,0,0,0,1.554,5.483A4.566,4.566,0,0,0,119.97,68.13Z"
		      transform="translate(410 107)"
		      fill="#ffffff"/>
	</g>
</svg>
